<?xml version="1.0" encoding="UTF-8"?>
<svg xmlns="http://www.w3.org/2000/svg" version="1.1" viewBox="0 0 1636.5 452">
  <defs>
    <style>
      .cls-1 {
        fill: #f1f1f1;
      }

      .cls-2 {
        fill: gray;
      }

      .cls-3 {
        fill: #b3b3b2;
      }

      .cls-4 {
        fill: #e6e5e5;
      }

      .cls-5 {
        fill: #bcb5b3;
      }

      .cls-6 {
        fill: #cccbcb;
      }

      .cls-7 {
        fill: #676767;
      }

      .cls-8 {
        fill: #4e4d4d;
      }

      .cls-9 {
        fill: #989898;
      }

      .cls-10 {
        fill: #1a1a1a;
      }

      .cls-11 {
        fill: #e7e4e4;
      }
    </style>
  </defs>
  <!-- Generator: Adobe Illustrator 28.7.1, SVG Export Plug-In . SVG Version: 1.2.0 Build 142)  -->
  <g>
    <g id="Capa_1">
      <g>
        <g>
          <rect class="cls-3" x="821.32" y="243.65" width="800.23" height="191.65"/>
          <path class="cls-8" d="M821.32,297.25v134.43h29.07v-105.36c0-16.05-12.72-29.07-29.07-29.07Z"/>
          <rect class="cls-7" x="821.32" y="74.71" width="195.29" height="29.97"/>
          <rect class="cls-7" x="1013.88" y="178.26" width="598.58" height="40.87"/>
          <rect class="cls-3" x="821.32" y="120.12" width="195.29" height="111.72"/>
          <rect class="cls-4" x="850.38" y="327.22" width="738.46" height="9.08"/>
          <rect class="cls-4" x="863.1" y="398.98" width="44.51" height="36.33"/>
          <rect class="cls-4" x="863.1" y="243.65" width="44.51" height="29.97"/>
          <rect class="cls-4" x="865.83" y="273.63" width="17.26" height="125.35"/>
          <rect class="cls-4" x="887.63" y="273.63" width="17.26" height="125.35"/>
          <g>
            <rect class="cls-4" x="972.1" y="398.98" width="44.51" height="36.33"/>
            <rect class="cls-4" x="972.1" y="243.65" width="44.51" height="29.97"/>
            <rect class="cls-4" x="974.82" y="273.63" width="17.26" height="125.35"/>
            <rect class="cls-4" x="996.62" y="273.63" width="17.26" height="125.35"/>
          </g>
          <g>
            <rect class="cls-4" x="972.1" y="120.12" width="44.51" height="22.71"/>
            <rect class="cls-4" x="974.82" y="142.83" width="17.26" height="89.02"/>
            <rect class="cls-4" x="996.62" y="142.83" width="17.26" height="89.02"/>
          </g>
          <g>
            <rect class="cls-4" x="863.1" y="120.12" width="44.51" height="22.71"/>
            <rect class="cls-4" x="865.83" y="142.83" width="17.26" height="89.02"/>
            <rect class="cls-4" x="887.63" y="142.83" width="17.26" height="89.02"/>
          </g>
          <g>
            <rect class="cls-4" x="1082.01" y="398.98" width="50.87" height="36.33"/>
            <rect class="cls-4" x="1082.01" y="243.65" width="50.87" height="29.97"/>
            <rect class="cls-4" x="1087.46" y="273.63" width="39.97" height="125.35"/>
          </g>
          <g>
            <rect class="cls-4" x="1180.1" y="398.98" width="49.96" height="36.33"/>
            <rect class="cls-4" x="1180.1" y="243.65" width="49.96" height="29.97"/>
            <rect class="cls-4" x="1184.65" y="273.63" width="40.87" height="125.35"/>
          </g>
          <rect class="cls-9" x="925.78" y="336.3" width="30.88" height="62.67"/>
          <rect class="cls-9" x="929.41" y="280.9" width="23.62" height="46.32"/>
          <g>
            <rect class="cls-9" x="1037.5" y="336.3" width="30.88" height="62.67"/>
            <rect class="cls-9" x="1041.13" y="280.9" width="23.62" height="46.32"/>
          </g>
          <g>
            <rect class="cls-9" x="1141.05" y="336.3" width="30.88" height="62.67"/>
            <rect class="cls-9" x="1144.68" y="280.9" width="23.62" height="46.32"/>
          </g>
          <g>
            <rect class="cls-9" x="1239.14" y="336.3" width="30.88" height="62.67"/>
            <rect class="cls-9" x="1242.78" y="280.9" width="23.62" height="46.32"/>
          </g>
          <g>
            <rect class="cls-9" x="1337.24" y="336.3" width="30.88" height="62.67"/>
            <rect class="cls-9" x="1340.88" y="280.9" width="23.62" height="46.32"/>
          </g>
          <g>
            <rect class="cls-9" x="1435.34" y="336.3" width="30.88" height="62.67"/>
            <rect class="cls-9" x="1438.97" y="280.9" width="23.62" height="46.32"/>
          </g>
          <g>
            <rect class="cls-9" x="1531.62" y="336.3" width="30.88" height="62.67"/>
            <rect class="cls-9" x="1535.26" y="280.9" width="23.62" height="46.32"/>
          </g>
          <rect class="cls-9" x="928.5" y="179.16" width="23.62" height="52.68"/>
          <rect class="cls-6" x="1016.61" y="219.13" width="604.94" height="24.52"/>
          <rect class="cls-2" x="914.88" y="163.72" width="51.77" height="8.17"/>
          <rect class="cls-3" x="910.33" y="155.55" width="60.86" height="8.17"/>
          <polygon class="cls-4" points="971.65 155.55 910.79 155.55 941.22 137.38 971.65 155.55"/>
          <rect class="cls-9" x="821.32" y="179.16" width="11.81" height="52.68"/>
          <rect class="cls-2" x="821.32" y="163.72" width="26.34" height="8.17"/>
          <rect class="cls-3" x="821.32" y="155.55" width="30.88" height="8.17"/>
          <rect class="cls-9" x="1091.09" y="178.26" width="32.7" height="40.87"/>
          <rect class="cls-9" x="1189.19" y="178.26" width="32.7" height="40.87"/>
          <rect class="cls-9" x="1286.38" y="178.26" width="32.7" height="40.87"/>
          <rect class="cls-9" x="1384.48" y="178.26" width="32.7" height="40.87"/>
          <rect class="cls-9" x="1481.67" y="178.26" width="32.7" height="40.87"/>
          <rect class="cls-9" x="1579.76" y="178.26" width="32.7" height="40.87"/>
          <rect class="cls-6" x="1013.88" y="171.9" width="602.21" height="6.36"/>
          <rect class="cls-4" x="1013.88" y="168.26" width="602.21" height="3.63"/>
          <g>
            <rect class="cls-4" x="1277.29" y="398.98" width="50.87" height="36.33"/>
            <rect class="cls-4" x="1277.29" y="243.65" width="50.87" height="29.97"/>
            <rect class="cls-4" x="1282.74" y="273.63" width="39.97" height="125.35"/>
          </g>
          <g>
            <rect class="cls-4" x="1375.39" y="398.98" width="50.87" height="36.33"/>
            <rect class="cls-4" x="1375.39" y="243.65" width="50.87" height="29.97"/>
            <rect class="cls-4" x="1380.84" y="273.63" width="39.97" height="125.35"/>
          </g>
          <g>
            <rect class="cls-4" x="1472.58" y="398.98" width="50.87" height="36.33"/>
            <rect class="cls-4" x="1472.58" y="243.65" width="50.87" height="29.97"/>
            <rect class="cls-4" x="1478.03" y="273.63" width="39.97" height="125.35"/>
          </g>
          <g>
            <rect class="cls-4" x="1570.68" y="398.98" width="50.87" height="36.33"/>
            <rect class="cls-4" x="1570.68" y="243.65" width="50.87" height="29.97"/>
            <rect class="cls-4" x="1576.13" y="273.63" width="39.97" height="125.35"/>
          </g>
          <polygon class="cls-6" points="880.31 104.68 1022.97 104.68 1022.97 120.12 908.52 120.12 880.31 104.68"/>
          <rect class="cls-9" x="972.1" y="74.71" width="44.51" height="29.97"/>
          <rect class="cls-9" x="884.9" y="74.71" width="17.26" height="29.97"/>
          <rect class="cls-6" x="821.32" y="65.62" width="201.65" height="9.08"/>
          <path class="cls-1" d="M1208.26,159.18v-8.53c2.72-1.08,4.09-3.31,4.09-5.88,0-3.64-6.36-29.44-6.36-29.44,0,0-6.93,25.81-6.93,29.44,0,2.75,1.93,5.11,3.75,6.09v8.32h-5.45v9.08h15.44v-9.08h-4.54Z"/>
          <path class="cls-1" d="M1110.16,159.18v-8.53c2.72-1.08,4.09-3.31,4.09-5.88,0-3.64-6.36-29.44-6.36-29.44,0,0-6.93,25.81-6.93,29.44,0,2.75,1.93,5.11,3.75,6.09v8.32h-5.45v9.08h15.44v-9.08h-4.54Z"/>
          <path class="cls-1" d="M997.53,56.54v-8.53c2.72-1.08,4.09-3.31,4.09-5.88,0-3.64-6.36-29.44-6.36-29.44,0,0-6.93,25.81-6.93,29.44,0,2.75,1.93,5.11,3.75,6.09v8.32h-5.45v9.08h15.44v-9.08h-4.54Z"/>
          <path class="cls-1" d="M896.71,56.54v-8.53c2.72-1.08,4.09-3.31,4.09-5.88,0-3.64-6.36-29.44-6.36-29.44,0,0-6.93,25.81-6.93,29.44,0,2.75,1.93,5.11,3.75,6.09v8.32h-5.45v9.08h15.44v-9.08h-4.54Z"/>
          <path class="cls-1" d="M1306.36,159.18v-8.53c2.72-1.08,4.09-3.31,4.09-5.88,0-3.64-6.36-29.44-6.36-29.44,0,0-6.93,25.81-6.93,29.44,0,2.75,1.93,5.11,3.75,6.09v8.32h-5.45v9.08h15.44v-9.08h-4.54Z"/>
          <path class="cls-1" d="M1404.46,159.18v-8.53c2.72-1.08,4.09-3.31,4.09-5.88,0-3.64-6.36-29.44-6.36-29.44,0,0-6.93,25.81-6.93,29.44,0,2.75,1.93,5.11,3.75,6.09v8.32h-5.45v9.08h15.44v-9.08h-4.54Z"/>
          <path class="cls-1" d="M1500.74,159.18v-8.53c2.72-1.08,4.09-3.31,4.09-5.88,0-3.64-6.36-29.44-6.36-29.44,0,0-6.93,25.81-6.93,29.44,0,2.75,1.93,5.11,3.75,6.09v8.32h-5.45v9.08h15.44v-9.08h-4.54Z"/>
          <path class="cls-1" d="M1598.84,159.18v-8.53c2.72-1.08,4.09-3.31,4.09-5.88,0-3.64-6.36-29.44-6.36-29.44,0,0-6.93,25.81-6.93,29.44,0,2.75,1.93,5.11,3.75,6.09v8.32h-5.45v9.08h15.44v-9.08h-4.54Z"/>
          <rect class="cls-6" x="821.32" y="231.85" width="195.29" height="11.81"/>
          <g>
            <rect class="cls-3" x="1021.15" y="185.52" width="9.08" height="28.16"/>
            <rect class="cls-3" x="1033.86" y="185.52" width="9.08" height="28.16"/>
            <rect class="cls-3" x="1046.58" y="185.52" width="9.08" height="28.16"/>
            <rect class="cls-3" x="1059.3" y="185.52" width="9.08" height="28.16"/>
            <rect class="cls-3" x="1072.01" y="185.52" width="9.08" height="28.16"/>
          </g>
          <g>
            <rect class="cls-3" x="1132.87" y="185.52" width="9.08" height="28.16"/>
            <rect class="cls-3" x="1145.59" y="185.52" width="9.08" height="28.16"/>
            <rect class="cls-3" x="1158.3" y="185.52" width="9.08" height="28.16"/>
            <rect class="cls-3" x="1171.02" y="185.52" width="9.08" height="28.16"/>
          </g>
          <g>
            <rect class="cls-3" x="911.24" y="80.16" width="9.99" height="18.17"/>
            <rect class="cls-3" x="925.78" y="80.16" width="9.99" height="18.17"/>
            <rect class="cls-3" x="940.31" y="80.16" width="9.99" height="18.17"/>
            <rect class="cls-3" x="954.84" y="80.16" width="9.99" height="18.17"/>
          </g>
          <g>
            <rect class="cls-3" x="1230.97" y="185.52" width="9.08" height="28.16"/>
            <rect class="cls-3" x="1243.69" y="185.52" width="9.08" height="28.16"/>
            <rect class="cls-3" x="1256.4" y="185.52" width="9.08" height="28.16"/>
            <rect class="cls-3" x="1269.12" y="185.52" width="9.08" height="28.16"/>
          </g>
          <g>
            <rect class="cls-3" x="1329.07" y="185.52" width="9.08" height="28.16"/>
            <rect class="cls-3" x="1341.78" y="185.52" width="9.08" height="28.16"/>
            <rect class="cls-3" x="1354.5" y="185.52" width="9.08" height="28.16"/>
            <rect class="cls-3" x="1367.22" y="185.52" width="9.08" height="28.16"/>
          </g>
          <g>
            <rect class="cls-3" x="1427.17" y="185.52" width="9.08" height="28.16"/>
            <rect class="cls-3" x="1439.88" y="185.52" width="9.08" height="28.16"/>
            <rect class="cls-3" x="1452.6" y="185.52" width="9.08" height="28.16"/>
            <rect class="cls-3" x="1465.32" y="185.52" width="9.08" height="28.16"/>
          </g>
          <g>
            <rect class="cls-3" x="1523.45" y="185.52" width="9.08" height="28.16"/>
            <rect class="cls-3" x="1536.16" y="185.52" width="9.08" height="28.16"/>
            <rect class="cls-3" x="1548.88" y="185.52" width="9.08" height="28.16"/>
            <rect class="cls-3" x="1561.6" y="185.52" width="9.08" height="28.16"/>
          </g>
          <polygon class="cls-4" points="908.52 120.12 821.32 120.12 821.32 71.98 908.52 120.12"/>
          <path class="cls-10" d="M821.32,304.9v122.24h23.62v-95.88c0-14.56-9.99-26.36-23.62-26.36Z"/>
          <polygon class="cls-4" points="821.32 136.47 821.32 155.55 853.11 155.55 821.32 136.47"/>
        </g>
        <g>
          <rect class="cls-5" x="22" y="243.65" width="800.23" height="191.65"/>
          <path class="cls-8" d="M822.23,297.25v134.43h-29.07v-105.36c0-16.05,13.62-29.07,29.07-29.07Z"/>
          <rect class="cls-9" x="626.94" y="74.71" width="195.29" height="29.97"/>
          <rect class="cls-11" x="31.08" y="178.26" width="598.58" height="40.87"/>
          <rect class="cls-5" x="626.94" y="120.12" width="195.29" height="111.72"/>
          <rect class="cls-4" x="54.7" y="327.22" width="738.46" height="9.08"/>
          <rect class="cls-4" x="735.94" y="398.98" width="44.51" height="36.33"/>
          <rect class="cls-4" x="735.94" y="243.65" width="44.51" height="29.97"/>
          <rect class="cls-4" x="760.46" y="273.63" width="17.26" height="125.35"/>
          <rect class="cls-4" x="738.66" y="273.63" width="17.26" height="125.35"/>
          <g>
            <rect class="cls-4" x="626.94" y="398.98" width="44.51" height="36.33"/>
            <rect class="cls-4" x="626.94" y="243.65" width="44.51" height="29.97"/>
            <rect class="cls-4" x="651.46" y="273.63" width="17.26" height="125.35"/>
            <rect class="cls-4" x="629.66" y="273.63" width="17.26" height="125.35"/>
          </g>
          <g>
            <rect class="cls-4" x="626.94" y="120.12" width="44.51" height="22.71"/>
            <rect class="cls-4" x="651.46" y="142.83" width="17.26" height="89.02"/>
            <rect class="cls-4" x="629.66" y="142.83" width="17.26" height="89.02"/>
          </g>
          <g>
            <rect class="cls-4" x="735.94" y="120.12" width="44.51" height="22.71"/>
            <rect class="cls-4" x="760.46" y="142.83" width="17.26" height="89.02"/>
            <rect class="cls-4" x="738.66" y="142.83" width="17.26" height="89.02"/>
          </g>
          <g>
            <rect class="cls-4" x="510.67" y="398.98" width="50.87" height="36.33"/>
            <rect class="cls-4" x="510.67" y="243.65" width="50.87" height="29.97"/>
            <rect class="cls-4" x="516.12" y="273.63" width="39.97" height="125.35"/>
          </g>
          <g>
            <rect class="cls-4" x="413.48" y="398.98" width="49.96" height="36.33"/>
            <rect class="cls-4" x="413.48" y="243.65" width="49.96" height="29.97"/>
            <rect class="cls-4" x="418.03" y="273.63" width="40.87" height="125.35"/>
          </g>
          <rect class="cls-9" x="686.89" y="336.3" width="30.88" height="62.67"/>
          <rect class="cls-9" x="690.52" y="280.9" width="23.62" height="46.32"/>
          <g>
            <rect class="cls-9" x="575.16" y="336.3" width="30.88" height="62.67"/>
            <rect class="cls-9" x="578.8" y="280.9" width="23.62" height="46.32"/>
          </g>
          <g>
            <rect class="cls-9" x="471.62" y="336.3" width="30.88" height="62.67"/>
            <rect class="cls-9" x="475.25" y="280.9" width="23.62" height="46.32"/>
          </g>
          <g>
            <rect class="cls-9" x="373.52" y="336.3" width="30.88" height="62.67"/>
            <rect class="cls-9" x="377.15" y="280.9" width="23.62" height="46.32"/>
          </g>
          <g>
            <rect class="cls-9" x="275.42" y="336.3" width="30.88" height="62.67"/>
            <rect class="cls-9" x="279.05" y="280.9" width="23.62" height="46.32"/>
          </g>
          <g>
            <rect class="cls-9" x="177.32" y="336.3" width="30.88" height="62.67"/>
            <rect class="cls-9" x="180.96" y="280.9" width="23.62" height="46.32"/>
          </g>
          <g>
            <rect class="cls-9" x="81.04" y="336.3" width="30.88" height="62.67"/>
            <rect class="cls-9" x="84.67" y="280.9" width="23.62" height="46.32"/>
          </g>
          <rect class="cls-9" x="691.43" y="179.16" width="23.62" height="52.68"/>
          <rect class="cls-6" x="22" y="219.13" width="604.94" height="24.52"/>
          <rect class="cls-2" x="676.9" y="163.72" width="51.77" height="8.17"/>
          <rect class="cls-3" x="672.35" y="155.55" width="60.86" height="8.17"/>
          <polygon class="cls-4" points="673.72 155.55 734.57 155.55 704.15 137.38 673.72 155.55"/>
          <rect class="cls-9" x="810.42" y="179.16" width="11.81" height="52.68"/>
          <rect class="cls-2" x="795.89" y="163.72" width="26.34" height="8.17"/>
          <rect class="cls-3" x="791.34" y="155.55" width="30.88" height="8.17"/>
          <rect class="cls-5" x="519.76" y="178.26" width="32.7" height="40.87"/>
          <rect class="cls-5" x="421.66" y="178.26" width="32.7" height="40.87"/>
          <rect class="cls-5" x="324.47" y="178.26" width="32.7" height="40.87"/>
          <rect class="cls-5" x="226.37" y="178.26" width="32.7" height="40.87"/>
          <rect class="cls-5" x="129.18" y="178.26" width="32.7" height="40.87"/>
          <rect class="cls-5" x="31.08" y="178.26" width="32.7" height="40.87"/>
          <rect class="cls-6" x="27.45" y="171.9" width="602.21" height="6.36"/>
          <rect class="cls-4" x="27.45" y="168.26" width="602.21" height="3.63"/>
          <g>
            <rect class="cls-4" x="315.39" y="398.98" width="50.87" height="36.33"/>
            <rect class="cls-4" x="315.39" y="243.65" width="50.87" height="29.97"/>
            <rect class="cls-4" x="320.84" y="273.63" width="39.97" height="125.35"/>
          </g>
          <g>
            <rect class="cls-4" x="217.29" y="398.98" width="50.87" height="36.33"/>
            <rect class="cls-4" x="217.29" y="243.65" width="50.87" height="29.97"/>
            <rect class="cls-4" x="222.74" y="273.63" width="39.97" height="125.35"/>
          </g>
          <g>
            <rect class="cls-4" x="120.1" y="398.98" width="50.87" height="36.33"/>
            <rect class="cls-4" x="120.1" y="243.65" width="50.87" height="29.97"/>
            <rect class="cls-4" x="125.55" y="273.63" width="39.97" height="125.35"/>
          </g>
          <g>
            <rect class="cls-4" x="22" y="398.98" width="50.87" height="36.33"/>
            <rect class="cls-4" x="22" y="243.65" width="50.87" height="29.97"/>
            <rect class="cls-4" x="27.45" y="273.63" width="39.97" height="125.35"/>
          </g>
          <polygon class="cls-6" points="765.06 104.68 620.58 104.68 620.58 120.12 736.85 120.12 765.06 104.68"/>
          <rect class="cls-5" x="626.94" y="74.71" width="44.51" height="29.97"/>
          <rect class="cls-9" x="741.39" y="74.71" width="17.26" height="29.97"/>
          <rect class="cls-6" x="620.58" y="65.62" width="201.65" height="9.08"/>
          <path class="cls-1" d="M435.28,159.18v-8.53c-1.82-1.08-3.18-3.31-3.18-5.88,0-3.64,6.81-29.44,6.81-29.44,0,0,6.24,25.81,6.24,29.44,0,2.75-1.7,5.11-4.43,6.09v8.32h5.45v9.08h-15.44v-9.08h4.54Z"/>
          <path class="cls-1" d="M533.38,159.18v-8.53c-1.82-1.08-3.18-3.31-3.18-5.88,0-3.64,6.81-29.44,6.81-29.44,0,0,6.24,25.81,6.24,29.44,0,2.75-1.7,5.11-4.43,6.09v8.32h5.45v9.08h-15.44v-9.08h4.54Z"/>
          <path class="cls-1" d="M646.01,56.54v-8.53c-1.82-1.08-3.18-3.31-3.18-5.88,0-3.64,6.81-29.44,6.81-29.44,0,0,6.24,25.81,6.24,29.44,0,2.75-1.7,5.11-4.43,6.09v8.32h5.45v9.08h-15.44v-9.08h4.54Z"/>
          <path class="cls-1" d="M746.84,56.54v-8.53c-1.82-1.08-3.18-3.31-3.18-5.88,0-3.64,6.81-29.44,6.81-29.44,0,0,6.24,25.81,6.24,29.44,0,2.75-1.7,5.11-4.43,6.09v8.32h5.45v9.08h-15.44v-9.08h4.54Z"/>
          <path class="cls-1" d="M337.19,159.18v-8.53c-1.82-1.08-3.18-3.31-3.18-5.88,0-3.64,6.81-29.44,6.81-29.44,0,0,6.24,25.81,6.24,29.44,0,2.75-1.7,5.11-4.43,6.09v8.32h5.45v9.08h-15.44v-9.08h4.54Z"/>
          <path class="cls-1" d="M239.09,159.18v-8.53c-1.82-1.08-3.18-3.31-3.18-5.88,0-3.64,6.81-29.44,6.81-29.44,0,0,6.24,25.81,6.24,29.44,0,2.75-1.7,5.11-4.43,6.09v8.32h5.45v9.08h-15.44v-9.08h4.54Z"/>
          <path class="cls-1" d="M142.81,159.18v-8.53c-1.82-1.08-3.18-3.31-3.18-5.88,0-3.64,6.81-29.44,6.81-29.44,0,0,6.24,25.81,6.24,29.44,0,2.75-1.7,5.11-4.43,6.09v8.32h5.45v9.08h-15.44v-9.08h4.54Z"/>
          <path class="cls-1" d="M44.71,159.18v-8.53c-1.82-1.08-3.18-3.31-3.18-5.88,0-3.64,6.81-29.44,6.81-29.44,0,0,6.24,25.81,6.24,29.44,0,2.75-1.7,5.11-4.43,6.09v8.32h5.45v9.08h-15.44v-9.08h4.54Z"/>
          <rect class="cls-6" x="626.94" y="231.85" width="195.29" height="11.81"/>
          <g>
            <rect class="cls-3" x="613.31" y="185.52" width="9.08" height="28.16"/>
            <rect class="cls-3" x="600.6" y="185.52" width="9.08" height="28.16"/>
            <rect class="cls-3" x="587.88" y="185.52" width="9.08" height="28.16"/>
            <rect class="cls-3" x="575.16" y="185.52" width="9.08" height="28.16"/>
            <rect class="cls-3" x="562.45" y="185.52" width="9.08" height="28.16"/>
          </g>
          <g>
            <rect class="cls-3" x="501.59" y="185.52" width="9.08" height="28.16"/>
            <rect class="cls-3" x="488.87" y="185.52" width="9.08" height="28.16"/>
            <rect class="cls-3" x="476.16" y="185.52" width="9.08" height="28.16"/>
            <rect class="cls-3" x="463.44" y="185.52" width="9.08" height="28.16"/>
          </g>
          <g>
            <rect class="cls-3" x="722.31" y="80.16" width="9.99" height="18.17"/>
            <rect class="cls-3" x="707.78" y="80.16" width="9.99" height="18.17"/>
            <rect class="cls-3" x="693.25" y="80.16" width="9.99" height="18.17"/>
            <rect class="cls-3" x="678.71" y="80.16" width="9.99" height="18.17"/>
          </g>
          <g>
            <rect class="cls-3" x="403.49" y="185.52" width="9.08" height="28.16"/>
            <rect class="cls-3" x="390.78" y="185.52" width="9.08" height="28.16"/>
            <rect class="cls-3" x="378.06" y="185.52" width="9.08" height="28.16"/>
            <rect class="cls-3" x="365.34" y="185.52" width="9.08" height="28.16"/>
          </g>
          <g>
            <rect class="cls-3" x="305.39" y="185.52" width="9.08" height="28.16"/>
            <rect class="cls-3" x="292.68" y="185.52" width="9.08" height="28.16"/>
            <rect class="cls-3" x="279.96" y="185.52" width="9.08" height="28.16"/>
            <rect class="cls-3" x="267.25" y="185.52" width="9.08" height="28.16"/>
          </g>
          <g>
            <rect class="cls-3" x="207.3" y="185.52" width="9.08" height="28.16"/>
            <rect class="cls-3" x="194.58" y="185.52" width="9.08" height="28.16"/>
            <rect class="cls-3" x="181.86" y="185.52" width="9.08" height="28.16"/>
            <rect class="cls-3" x="169.15" y="185.52" width="9.08" height="28.16"/>
          </g>
          <g>
            <rect class="cls-3" x="111.02" y="185.52" width="9.08" height="28.16"/>
            <rect class="cls-3" x="98.3" y="185.52" width="9.08" height="28.16"/>
            <rect class="cls-3" x="85.58" y="185.52" width="9.08" height="28.16"/>
            <rect class="cls-3" x="72.87" y="185.52" width="9.08" height="28.16"/>
          </g>
          <polygon class="cls-4" points="736.85 120.12 822.23 120.12 822.23 71.98 736.85 120.12"/>
          <polygon class="cls-4" points="822.23 136.47 822.23 155.55 792.25 155.55 822.23 136.47"/>
        </g>
        <g>
          <rect class="cls-5" x="821.77" y="243.65" width="800.23" height="191.65"/>
          <path class="cls-8" d="M821.77,297.25v134.43s29.07,0,29.07,0v-105.36c0-16.05-13.62-29.07-29.07-29.07Z"/>
          <rect class="cls-9" x="821.77" y="74.71" width="195.29" height="29.97"/>
          <rect class="cls-11" x="1014.34" y="178.26" width="598.58" height="40.87"/>
          <rect class="cls-5" x="821.77" y="120.12" width="195.29" height="111.72"/>
          <rect class="cls-4" x="850.84" y="327.22" width="738.46" height="9.08"/>
          <rect class="cls-4" x="863.56" y="398.98" width="44.51" height="36.33"/>
          <rect class="cls-4" x="863.56" y="243.65" width="44.51" height="29.97"/>
          <rect class="cls-4" x="866.28" y="273.63" width="17.26" height="125.35"/>
          <rect class="cls-4" x="888.08" y="273.63" width="17.26" height="125.35"/>
          <g>
            <rect class="cls-4" x="972.55" y="398.98" width="44.51" height="36.33"/>
            <rect class="cls-4" x="972.55" y="243.65" width="44.51" height="29.97"/>
            <rect class="cls-4" x="975.28" y="273.63" width="17.26" height="125.35"/>
            <rect class="cls-4" x="997.08" y="273.63" width="17.26" height="125.35"/>
          </g>
          <g>
            <rect class="cls-4" x="972.55" y="120.12" width="44.51" height="22.71"/>
            <rect class="cls-4" x="975.28" y="142.83" width="17.26" height="89.02"/>
            <rect class="cls-4" x="997.08" y="142.83" width="17.26" height="89.02"/>
          </g>
          <g>
            <rect class="cls-4" x="863.56" y="120.12" width="44.51" height="22.71"/>
            <rect class="cls-4" x="866.28" y="142.83" width="17.26" height="89.02"/>
            <rect class="cls-4" x="888.08" y="142.83" width="17.26" height="89.02"/>
          </g>
          <g>
            <rect class="cls-4" x="1082.46" y="398.98" width="50.87" height="36.33"/>
            <rect class="cls-4" x="1082.46" y="243.65" width="50.87" height="29.97"/>
            <rect class="cls-4" x="1087.91" y="273.63" width="39.97" height="125.35"/>
          </g>
          <g>
            <rect class="cls-4" x="1180.56" y="398.98" width="49.96" height="36.33"/>
            <rect class="cls-4" x="1180.56" y="243.65" width="49.96" height="29.97"/>
            <rect class="cls-4" x="1185.1" y="273.63" width="40.87" height="125.35"/>
          </g>
          <rect class="cls-9" x="926.23" y="336.3" width="30.88" height="62.67"/>
          <rect class="cls-9" x="929.86" y="280.9" width="23.62" height="46.32"/>
          <g>
            <rect class="cls-9" x="1037.95" y="336.3" width="30.88" height="62.67"/>
            <rect class="cls-9" x="1041.59" y="280.9" width="23.62" height="46.32"/>
          </g>
          <g>
            <rect class="cls-9" x="1141.5" y="336.3" width="30.88" height="62.67"/>
            <rect class="cls-9" x="1145.13" y="280.9" width="23.62" height="46.32"/>
          </g>
          <g>
            <rect class="cls-9" x="1239.6" y="336.3" width="30.88" height="62.67"/>
            <rect class="cls-9" x="1243.23" y="280.9" width="23.62" height="46.32"/>
          </g>
          <g>
            <rect class="cls-9" x="1337.7" y="336.3" width="30.88" height="62.67"/>
            <rect class="cls-9" x="1341.33" y="280.9" width="23.62" height="46.32"/>
          </g>
          <g>
            <rect class="cls-9" x="1435.8" y="336.3" width="30.88" height="62.67"/>
            <rect class="cls-9" x="1439.43" y="280.9" width="23.62" height="46.32"/>
          </g>
          <g>
            <rect class="cls-9" x="1532.08" y="336.3" width="30.88" height="62.67"/>
            <rect class="cls-9" x="1535.71" y="280.9" width="23.62" height="46.32"/>
          </g>
          <rect class="cls-9" x="928.95" y="179.16" width="23.62" height="52.68"/>
          <rect class="cls-6" x="1017.06" y="219.13" width="604.94" height="24.52"/>
          <rect class="cls-2" x="915.33" y="163.72" width="51.77" height="8.17"/>
          <rect class="cls-3" x="910.79" y="155.55" width="60.86" height="8.17"/>
          <polygon class="cls-4" points="970.28 155.55 909.43 155.55 939.85 137.38 970.28 155.55"/>
          <rect class="cls-9" x="821.77" y="179.16" width="11.81" height="52.68"/>
          <rect class="cls-2" x="821.77" y="163.72" width="26.34" height="8.17"/>
          <rect class="cls-3" x="821.77" y="155.55" width="30.88" height="8.17"/>
          <rect class="cls-5" x="1091.54" y="178.26" width="32.7" height="40.87"/>
          <rect class="cls-5" x="1189.64" y="178.26" width="32.7" height="40.87"/>
          <rect class="cls-5" x="1286.83" y="178.26" width="32.7" height="40.87"/>
          <rect class="cls-5" x="1384.93" y="178.26" width="32.7" height="40.87"/>
          <rect class="cls-5" x="1482.12" y="178.26" width="32.7" height="40.87"/>
          <rect class="cls-5" x="1580.22" y="178.26" width="32.7" height="40.87"/>
          <rect class="cls-6" x="1014.34" y="171.9" width="602.21" height="6.36"/>
          <rect class="cls-4" x="1014.34" y="168.26" width="602.21" height="3.63"/>
          <g>
            <rect class="cls-4" x="1277.75" y="398.98" width="50.87" height="36.33"/>
            <rect class="cls-4" x="1277.75" y="243.65" width="50.87" height="29.97"/>
            <rect class="cls-4" x="1283.2" y="273.63" width="39.97" height="125.35"/>
          </g>
          <g>
            <rect class="cls-4" x="1375.85" y="398.98" width="50.87" height="36.33"/>
            <rect class="cls-4" x="1375.85" y="243.65" width="50.87" height="29.97"/>
            <rect class="cls-4" x="1381.3" y="273.63" width="39.97" height="125.35"/>
          </g>
          <g>
            <rect class="cls-4" x="1473.04" y="398.98" width="50.87" height="36.33"/>
            <rect class="cls-4" x="1473.04" y="243.65" width="50.87" height="29.97"/>
            <rect class="cls-4" x="1478.49" y="273.63" width="39.97" height="125.35"/>
          </g>
          <g>
            <rect class="cls-4" x="1571.13" y="398.98" width="50.87" height="36.33"/>
            <rect class="cls-4" x="1571.13" y="243.65" width="50.87" height="29.97"/>
            <rect class="cls-4" x="1576.58" y="273.63" width="39.97" height="125.35"/>
          </g>
          <polygon class="cls-6" points="878.94 104.68 1023.42 104.68 1023.42 120.12 907.15 120.12 878.94 104.68"/>
          <rect class="cls-5" x="972.55" y="74.71" width="44.51" height="29.97"/>
          <rect class="cls-9" x="885.36" y="74.71" width="17.26" height="29.97"/>
          <rect class="cls-6" x="821.77" y="65.62" width="201.65" height="9.08"/>
          <path class="cls-1" d="M1208.72,159.18v-8.53c1.82-1.08,3.18-3.31,3.18-5.88,0-3.64-6.81-29.44-6.81-29.44,0,0-6.24,25.81-6.24,29.44,0,2.75,1.7,5.11,4.43,6.09v8.32h-5.45s0,9.08,0,9.08h15.44s0-9.08,0-9.08h-4.54Z"/>
          <path class="cls-1" d="M1110.62,159.18v-8.53c1.82-1.08,3.18-3.31,3.18-5.88,0-3.64-6.81-29.44-6.81-29.44,0,0-6.24,25.81-6.24,29.44,0,2.75,1.7,5.11,4.43,6.09v8.32h-5.45s0,9.08,0,9.08h15.44s0-9.08,0-9.08h-4.54Z"/>
          <path class="cls-1" d="M997.99,56.54v-8.53c1.82-1.08,3.18-3.31,3.18-5.88,0-3.64-6.81-29.44-6.81-29.44,0,0-6.24,25.81-6.24,29.44,0,2.75,1.7,5.11,4.43,6.09v8.32h-5.45s0,9.08,0,9.08h15.44s0-9.08,0-9.08h-4.54Z"/>
          <path class="cls-1" d="M897.16,56.54v-8.53c1.82-1.08,3.18-3.31,3.18-5.88,0-3.64-6.81-29.44-6.81-29.44,0,0-6.24,25.81-6.24,29.44,0,2.75,1.7,5.11,4.43,6.09v8.32h-5.45s0,9.08,0,9.08h15.44s0-9.08,0-9.08h-4.54Z"/>
          <path class="cls-1" d="M1306.81,159.18v-8.53c1.82-1.08,3.18-3.31,3.18-5.88,0-3.64-6.81-29.44-6.81-29.44,0,0-6.24,25.81-6.24,29.44,0,2.75,1.7,5.11,4.43,6.09v8.32h-5.45s0,9.08,0,9.08h15.44s0-9.08,0-9.08h-4.54Z"/>
          <path class="cls-1" d="M1404.91,159.18v-8.53c1.82-1.08,3.18-3.31,3.18-5.88,0-3.64-6.81-29.44-6.81-29.44,0,0-6.24,25.81-6.24,29.44,0,2.75,1.7,5.11,4.43,6.09v8.32h-5.45s0,9.08,0,9.08h15.44s0-9.08,0-9.08h-4.54Z"/>
          <path class="cls-1" d="M1501.19,159.18v-8.53c1.82-1.08,3.18-3.31,3.18-5.88,0-3.64-6.81-29.44-6.81-29.44,0,0-6.24,25.81-6.24,29.44,0,2.75,1.7,5.11,4.43,6.09v8.32h-5.45s0,9.08,0,9.08h15.44s0-9.08,0-9.08h-4.54Z"/>
          <path class="cls-1" d="M1599.29,159.18v-8.53c1.82-1.08,3.18-3.31,3.18-5.88,0-3.64-6.81-29.44-6.81-29.44,0,0-6.24,25.81-6.24,29.44,0,2.75,1.7,5.11,4.43,6.09v8.32h-5.45s0,9.08,0,9.08h15.44s0-9.08,0-9.08h-4.54Z"/>
          <rect class="cls-6" x="821.77" y="231.85" width="195.29" height="11.81"/>
          <g>
            <rect class="cls-3" x="1021.6" y="185.52" width="9.08" height="28.16"/>
            <rect class="cls-3" x="1034.32" y="185.52" width="9.08" height="28.16"/>
            <rect class="cls-3" x="1047.04" y="185.52" width="9.08" height="28.16"/>
            <rect class="cls-3" x="1059.75" y="185.52" width="9.08" height="28.16"/>
            <rect class="cls-3" x="1072.47" y="185.52" width="9.08" height="28.16"/>
          </g>
          <g>
            <rect class="cls-3" x="1133.33" y="185.52" width="9.08" height="28.16"/>
            <rect class="cls-3" x="1146.04" y="185.52" width="9.08" height="28.16"/>
            <rect class="cls-3" x="1158.76" y="185.52" width="9.08" height="28.16"/>
            <rect class="cls-3" x="1171.47" y="185.52" width="9.08" height="28.16"/>
          </g>
          <g>
            <rect class="cls-3" x="911.7" y="80.16" width="9.99" height="18.17"/>
            <rect class="cls-3" x="926.23" y="80.16" width="9.99" height="18.17"/>
            <rect class="cls-3" x="940.76" y="80.16" width="9.99" height="18.17"/>
            <rect class="cls-3" x="955.3" y="80.16" width="9.99" height="18.17"/>
          </g>
          <g>
            <rect class="cls-3" x="1231.42" y="185.52" width="9.08" height="28.16"/>
            <rect class="cls-3" x="1244.14" y="185.52" width="9.08" height="28.16"/>
            <rect class="cls-3" x="1256.86" y="185.52" width="9.08" height="28.16"/>
            <rect class="cls-3" x="1269.57" y="185.52" width="9.08" height="28.16"/>
          </g>
          <g>
            <rect class="cls-3" x="1329.52" y="185.52" width="9.08" height="28.16"/>
            <rect class="cls-3" x="1342.24" y="185.52" width="9.08" height="28.16"/>
            <rect class="cls-3" x="1354.95" y="185.52" width="9.08" height="28.16"/>
            <rect class="cls-3" x="1367.67" y="185.52" width="9.08" height="28.16"/>
          </g>
          <g>
            <rect class="cls-3" x="1427.62" y="185.52" width="9.08" height="28.16"/>
            <rect class="cls-3" x="1440.34" y="185.52" width="9.08" height="28.16"/>
            <rect class="cls-3" x="1453.05" y="185.52" width="9.08" height="28.16"/>
            <rect class="cls-3" x="1465.77" y="185.52" width="9.08" height="28.16"/>
          </g>
          <g>
            <rect class="cls-3" x="1523.9" y="185.52" width="9.08" height="28.16"/>
            <rect class="cls-3" x="1536.62" y="185.52" width="9.08" height="28.16"/>
            <rect class="cls-3" x="1549.33" y="185.52" width="9.08" height="28.16"/>
            <rect class="cls-3" x="1562.05" y="185.52" width="9.08" height="28.16"/>
          </g>
          <polygon class="cls-4" points="907.15 120.12 821.77 120.12 821.77 71.98 907.15 120.12"/>
          <polygon class="cls-4" points="821.77 136.47 821.77 155.55 851.75 155.55 821.77 136.47"/>
        </g>
      </g>
    </g>
  </g>
</svg>